<mxfile host="app.diagrams.net" agent="Mozilla/5.0 (Windows NT 10.0; Win64; x64) AppleWebKit/537.36 (KHTML, like Gecko) Chrome/136.0.0.0 Safari/537.36 Edg/136.0.0.0" version="27.0.3">
  <diagram name="Page-1" id="xbsimYnlh9g8eGVlAv7C">
    <mxGraphModel dx="1119" dy="683" grid="1" gridSize="10" guides="1" tooltips="1" connect="1" arrows="1" fold="1" page="1" pageScale="1" pageWidth="827" pageHeight="1169" math="0" shadow="0">
      <root>
        <mxCell id="0" />
        <mxCell id="1" parent="0" />
        <mxCell id="-cmkB-pACfV8jmjpuL0W-12" style="edgeStyle=orthogonalEdgeStyle;rounded=0;orthogonalLoop=1;jettySize=auto;html=1;exitX=0.5;exitY=0;exitDx=0;exitDy=0;entryX=0.5;entryY=1;entryDx=0;entryDy=0;" parent="1" source="-cmkB-pACfV8jmjpuL0W-1" target="-cmkB-pACfV8jmjpuL0W-4" edge="1">
          <mxGeometry relative="1" as="geometry" />
        </mxCell>
        <mxCell id="-cmkB-pACfV8jmjpuL0W-13" style="edgeStyle=orthogonalEdgeStyle;rounded=0;orthogonalLoop=1;jettySize=auto;html=1;exitX=0.25;exitY=0;exitDx=0;exitDy=0;entryX=0.5;entryY=1;entryDx=0;entryDy=0;" parent="1" source="-cmkB-pACfV8jmjpuL0W-1" target="-cmkB-pACfV8jmjpuL0W-3" edge="1">
          <mxGeometry relative="1" as="geometry" />
        </mxCell>
        <mxCell id="-cmkB-pACfV8jmjpuL0W-14" style="edgeStyle=orthogonalEdgeStyle;rounded=0;orthogonalLoop=1;jettySize=auto;html=1;exitX=0.75;exitY=0;exitDx=0;exitDy=0;entryX=0.5;entryY=1;entryDx=0;entryDy=0;" parent="1" source="-cmkB-pACfV8jmjpuL0W-1" target="-cmkB-pACfV8jmjpuL0W-5" edge="1">
          <mxGeometry relative="1" as="geometry" />
        </mxCell>
        <mxCell id="-cmkB-pACfV8jmjpuL0W-1" value="API Gateway" style="rounded=1;whiteSpace=wrap;html=1;" parent="1" vertex="1">
          <mxGeometry x="190" y="470" width="270" height="60" as="geometry" />
        </mxCell>
        <mxCell id="-cmkB-pACfV8jmjpuL0W-15" style="edgeStyle=orthogonalEdgeStyle;rounded=0;orthogonalLoop=1;jettySize=auto;html=1;exitX=0.5;exitY=0;exitDx=0;exitDy=0;entryX=0.5;entryY=1;entryDx=0;entryDy=0;" parent="1" source="-cmkB-pACfV8jmjpuL0W-2" target="-cmkB-pACfV8jmjpuL0W-1" edge="1">
          <mxGeometry relative="1" as="geometry" />
        </mxCell>
        <mxCell id="-cmkB-pACfV8jmjpuL0W-2" value="Frontend" style="ellipse;whiteSpace=wrap;html=1;" parent="1" vertex="1">
          <mxGeometry x="265" y="600" width="120" height="80" as="geometry" />
        </mxCell>
        <mxCell id="-cmkB-pACfV8jmjpuL0W-3" value="Auth" style="whiteSpace=wrap;html=1;aspect=fixed;" parent="1" vertex="1">
          <mxGeometry x="150" y="340" width="80" height="80" as="geometry" />
        </mxCell>
        <mxCell id="-cmkB-pACfV8jmjpuL0W-4" value="Matchmaker" style="whiteSpace=wrap;html=1;aspect=fixed;" parent="1" vertex="1">
          <mxGeometry x="285" y="340" width="80" height="80" as="geometry" />
        </mxCell>
        <mxCell id="-cmkB-pACfV8jmjpuL0W-5" value="Game" style="whiteSpace=wrap;html=1;aspect=fixed;" parent="1" vertex="1">
          <mxGeometry x="430" y="340" width="80" height="80" as="geometry" />
        </mxCell>
        <mxCell id="-cmkB-pACfV8jmjpuL0W-7" value="Cloud" style="ellipse;shape=cloud;whiteSpace=wrap;html=1;" parent="1" vertex="1">
          <mxGeometry x="230" y="120" width="225" height="130" as="geometry" />
        </mxCell>
        <mxCell id="-cmkB-pACfV8jmjpuL0W-8" value="Stats" style="shape=cylinder3;whiteSpace=wrap;html=1;boundedLbl=1;backgroundOutline=1;size=15;" parent="1" vertex="1">
          <mxGeometry x="395" y="130" width="60" height="80" as="geometry" />
        </mxCell>
        <mxCell id="-cmkB-pACfV8jmjpuL0W-9" value="Accounts" style="shape=cylinder3;whiteSpace=wrap;html=1;boundedLbl=1;backgroundOutline=1;size=15;" parent="1" vertex="1">
          <mxGeometry x="260" y="100" width="60" height="80" as="geometry" />
        </mxCell>
        <mxCell id="-cmkB-pACfV8jmjpuL0W-10" style="edgeStyle=orthogonalEdgeStyle;rounded=0;orthogonalLoop=1;jettySize=auto;html=1;exitX=0.5;exitY=0;exitDx=0;exitDy=0;entryX=0.13;entryY=0.77;entryDx=0;entryDy=0;entryPerimeter=0;" parent="1" source="-cmkB-pACfV8jmjpuL0W-3" target="-cmkB-pACfV8jmjpuL0W-7" edge="1">
          <mxGeometry relative="1" as="geometry" />
        </mxCell>
        <mxCell id="-cmkB-pACfV8jmjpuL0W-11" style="edgeStyle=orthogonalEdgeStyle;rounded=0;orthogonalLoop=1;jettySize=auto;html=1;exitX=0.5;exitY=0;exitDx=0;exitDy=0;entryX=0.752;entryY=0.876;entryDx=0;entryDy=0;entryPerimeter=0;" parent="1" source="-cmkB-pACfV8jmjpuL0W-5" target="-cmkB-pACfV8jmjpuL0W-7" edge="1">
          <mxGeometry relative="1" as="geometry" />
        </mxCell>
        <mxCell id="8yGWUpx3MjrqzYL-J7tt-1" style="edgeStyle=orthogonalEdgeStyle;rounded=0;orthogonalLoop=1;jettySize=auto;html=1;exitX=0.5;exitY=0;exitDx=0;exitDy=0;entryX=0.5;entryY=1;entryDx=0;entryDy=0;" edge="1" source="8yGWUpx3MjrqzYL-J7tt-4" target="8yGWUpx3MjrqzYL-J7tt-8" parent="1">
          <mxGeometry relative="1" as="geometry" />
        </mxCell>
        <mxCell id="8yGWUpx3MjrqzYL-J7tt-3" style="edgeStyle=orthogonalEdgeStyle;rounded=0;orthogonalLoop=1;jettySize=auto;html=1;exitX=0.75;exitY=0;exitDx=0;exitDy=0;entryX=0.5;entryY=1;entryDx=0;entryDy=0;" edge="1" source="8yGWUpx3MjrqzYL-J7tt-4" target="8yGWUpx3MjrqzYL-J7tt-9" parent="1">
          <mxGeometry relative="1" as="geometry" />
        </mxCell>
        <mxCell id="8yGWUpx3MjrqzYL-J7tt-31" style="edgeStyle=orthogonalEdgeStyle;rounded=0;orthogonalLoop=1;jettySize=auto;html=1;exitX=0.25;exitY=0;exitDx=0;exitDy=0;entryX=0;entryY=0.5;entryDx=0;entryDy=0;" edge="1" parent="1" source="8yGWUpx3MjrqzYL-J7tt-4" target="8yGWUpx3MjrqzYL-J7tt-22">
          <mxGeometry relative="1" as="geometry" />
        </mxCell>
        <mxCell id="8yGWUpx3MjrqzYL-J7tt-4" value="API Gateway" style="rounded=1;whiteSpace=wrap;html=1;" vertex="1" parent="1">
          <mxGeometry x="700" y="470" width="270" height="60" as="geometry" />
        </mxCell>
        <mxCell id="8yGWUpx3MjrqzYL-J7tt-30" style="edgeStyle=orthogonalEdgeStyle;rounded=0;orthogonalLoop=1;jettySize=auto;html=1;exitX=0.5;exitY=0;exitDx=0;exitDy=0;entryX=0.5;entryY=1;entryDx=0;entryDy=0;" edge="1" parent="1" source="8yGWUpx3MjrqzYL-J7tt-6" target="8yGWUpx3MjrqzYL-J7tt-28">
          <mxGeometry relative="1" as="geometry" />
        </mxCell>
        <mxCell id="8yGWUpx3MjrqzYL-J7tt-6" value="Frontend" style="ellipse;whiteSpace=wrap;html=1;" vertex="1" parent="1">
          <mxGeometry x="775" y="660" width="120" height="80" as="geometry" />
        </mxCell>
        <mxCell id="8yGWUpx3MjrqzYL-J7tt-23" style="edgeStyle=orthogonalEdgeStyle;rounded=0;orthogonalLoop=1;jettySize=auto;html=1;exitX=0.5;exitY=0;exitDx=0;exitDy=0;entryX=0.5;entryY=1;entryDx=0;entryDy=0;" edge="1" parent="1" source="8yGWUpx3MjrqzYL-J7tt-8" target="8yGWUpx3MjrqzYL-J7tt-22">
          <mxGeometry relative="1" as="geometry" />
        </mxCell>
        <mxCell id="8yGWUpx3MjrqzYL-J7tt-8" value="Game Logic" style="whiteSpace=wrap;html=1;aspect=fixed;" vertex="1" parent="1">
          <mxGeometry x="795" y="340" width="80" height="80" as="geometry" />
        </mxCell>
        <mxCell id="8yGWUpx3MjrqzYL-J7tt-25" style="edgeStyle=orthogonalEdgeStyle;rounded=0;orthogonalLoop=1;jettySize=auto;html=1;exitX=0.5;exitY=0;exitDx=0;exitDy=0;entryX=1;entryY=1;entryDx=0;entryDy=0;" edge="1" parent="1" source="8yGWUpx3MjrqzYL-J7tt-9" target="8yGWUpx3MjrqzYL-J7tt-22">
          <mxGeometry relative="1" as="geometry" />
        </mxCell>
        <mxCell id="8yGWUpx3MjrqzYL-J7tt-9" value="Game" style="whiteSpace=wrap;html=1;aspect=fixed;" vertex="1" parent="1">
          <mxGeometry x="940" y="340" width="80" height="80" as="geometry" />
        </mxCell>
        <mxCell id="8yGWUpx3MjrqzYL-J7tt-10" value="Cloud" style="ellipse;shape=cloud;whiteSpace=wrap;html=1;" vertex="1" parent="1">
          <mxGeometry x="740" y="120" width="225" height="130" as="geometry" />
        </mxCell>
        <mxCell id="8yGWUpx3MjrqzYL-J7tt-11" value="Stats" style="shape=cylinder3;whiteSpace=wrap;html=1;boundedLbl=1;backgroundOutline=1;size=15;" vertex="1" parent="1">
          <mxGeometry x="905" y="130" width="60" height="80" as="geometry" />
        </mxCell>
        <mxCell id="8yGWUpx3MjrqzYL-J7tt-13" style="edgeStyle=orthogonalEdgeStyle;rounded=0;orthogonalLoop=1;jettySize=auto;html=1;exitX=0.5;exitY=0;exitDx=0;exitDy=0;entryX=0.882;entryY=0.761;entryDx=0;entryDy=0;entryPerimeter=0;" edge="1" source="8yGWUpx3MjrqzYL-J7tt-9" target="8yGWUpx3MjrqzYL-J7tt-10" parent="1">
          <mxGeometry relative="1" as="geometry" />
        </mxCell>
        <mxCell id="8yGWUpx3MjrqzYL-J7tt-14" value="Accounts" style="shape=cylinder3;whiteSpace=wrap;html=1;boundedLbl=1;backgroundOutline=1;size=15;" vertex="1" parent="1">
          <mxGeometry x="767" y="100" width="60" height="80" as="geometry" />
        </mxCell>
        <mxCell id="8yGWUpx3MjrqzYL-J7tt-21" style="edgeStyle=orthogonalEdgeStyle;rounded=0;orthogonalLoop=1;jettySize=auto;html=1;exitX=0;exitY=0.5;exitDx=0;exitDy=0;entryX=0.07;entryY=0.4;entryDx=0;entryDy=0;entryPerimeter=0;" edge="1" parent="1" source="8yGWUpx3MjrqzYL-J7tt-28" target="8yGWUpx3MjrqzYL-J7tt-10">
          <mxGeometry relative="1" as="geometry">
            <Array as="points">
              <mxPoint x="660" y="610" />
              <mxPoint x="660" y="172" />
            </Array>
          </mxGeometry>
        </mxCell>
        <mxCell id="8yGWUpx3MjrqzYL-J7tt-22" value="Redis" style="rhombus;whiteSpace=wrap;html=1;" vertex="1" parent="1">
          <mxGeometry x="825" y="200" width="80" height="80" as="geometry" />
        </mxCell>
        <mxCell id="8yGWUpx3MjrqzYL-J7tt-29" style="edgeStyle=orthogonalEdgeStyle;rounded=0;orthogonalLoop=1;jettySize=auto;html=1;exitX=0.5;exitY=0;exitDx=0;exitDy=0;entryX=0.5;entryY=1;entryDx=0;entryDy=0;" edge="1" parent="1" source="8yGWUpx3MjrqzYL-J7tt-28" target="8yGWUpx3MjrqzYL-J7tt-4">
          <mxGeometry relative="1" as="geometry" />
        </mxCell>
        <mxCell id="8yGWUpx3MjrqzYL-J7tt-28" value="SSR" style="rounded=0;whiteSpace=wrap;html=1;" vertex="1" parent="1">
          <mxGeometry x="740" y="590" width="190" height="40" as="geometry" />
        </mxCell>
      </root>
    </mxGraphModel>
  </diagram>
</mxfile>
